<svg id="visual" viewBox="0 0 1980 1020" width="1980" height="1020" xmlns="http://www.w3.org/2000/svg" xmlns:xlink="http://www.w3.org/1999/xlink" version="1.1"><rect x="0" y="0" width="1980" height="1020" fill="#fff"></rect><path d="M0 636L283 598L566 675L849 617L1131 719L1414 658L1697 690L1980 657L1980 1021L1697 1021L1414 1021L1131 1021L849 1021L566 1021L283 1021L0 1021Z" fill="#e9ecef"></path><path d="M0 675L283 728L566 807L849 678L1131 682L1414 748L1697 706L1980 677L1980 1021L1697 1021L1414 1021L1131 1021L849 1021L566 1021L283 1021L0 1021Z" fill="#eceff1"></path><path d="M0 818L283 821L566 811L849 788L1131 824L1414 744L1697 801L1980 837L1980 1021L1697 1021L1414 1021L1131 1021L849 1021L566 1021L283 1021L0 1021Z" fill="#f0f2f4"></path><path d="M0 827L283 818L566 878L849 842L1131 875L1414 866L1697 840L1980 888L1980 1021L1697 1021L1414 1021L1131 1021L849 1021L566 1021L283 1021L0 1021Z" fill="#f4f5f7"></path><path d="M0 950L283 922L566 943L849 936L1131 900L1414 971L1697 952L1980 893L1980 1021L1697 1021L1414 1021L1131 1021L849 1021L566 1021L283 1021L0 1021Z" fill="#f8f9fa"></path></svg>