<svg id="visual" viewBox="0 0 1980 1020" width="1980" height="1020" xmlns="http://www.w3.org/2000/svg" xmlns:xlink="http://www.w3.org/1999/xlink" version="1.1"><rect x="0" y="0" width="1980" height="1020" fill="#0f172a"></rect><path d="M0 739L283 616L566 688L849 675L1131 638L1414 617L1697 642L1980 700L1980 1021L1697 1021L1414 1021L1131 1021L849 1021L566 1021L283 1021L0 1021Z" fill="#1e293b"></path><path d="M0 728L283 696L566 807L849 690L1131 807L1414 779L1697 686L1980 787L1980 1021L1697 1021L1414 1021L1131 1021L849 1021L566 1021L283 1021L0 1021Z" fill="#1a2436"></path><path d="M0 814L283 745L566 850L849 750L1131 762L1414 747L1697 758L1980 761L1980 1021L1697 1021L1414 1021L1131 1021L849 1021L566 1021L283 1021L0 1021Z" fill="#162032"></path><path d="M0 871L283 855L566 893L849 894L1131 881L1414 913L1697 825L1980 871L1980 1021L1697 1021L1414 1021L1131 1021L849 1021L566 1021L283 1021L0 1021Z" fill="#121b2e"></path><path d="M0 920L283 928L566 962L849 929L1131 949L1414 960L1697 936L1980 934L1980 1021L1697 1021L1414 1021L1131 1021L849 1021L566 1021L283 1021L0 1021Z" fill="#0f172a"></path></svg>